<?xml version="1.0" encoding="UTF-8" standalone="no"?>
<svg
   width="512"
   height="512"
   viewBox="0 0 512 512"
   version="1.1"
   id="svg5"
   xml:space="preserve"
   xmlns:xlink="http://www.w3.org/1999/xlink"
   xmlns="http://www.w3.org/2000/svg"
   xmlns:svg="http://www.w3.org/2000/svg"><defs
     id="defs2"><pattern
       xlink:href="#Packedcircles"
       id="pattern17070"
       patternTransform="matrix(41.118751,0,0,40.915334,-2903.8196,-1016.1319)" /><linearGradient
       id="linearGradient17026"><stop
         style="stop-color:#edffa9;stop-opacity:1;"
         offset="0"
         id="stop17024" /></linearGradient><pattern
       patternUnits="userSpaceOnUse"
       width="1"
       height="1.73205080756"
       patternTransform="translate(0,0) scale(10,10)"
       id="Packedcircles"><circle
         style="fill:black;stroke:none"
         cx="0"
         cy="0.5"
         r="0.5"
         id="circle15963" /><circle
         style="fill:black;stroke:none"
         cx="1"
         cy="0.5"
         r="0.5"
         id="circle15965" /><circle
         style="fill:black;stroke:none"
         cx="0.5"
         cy="1.36602540378"
         r="0.5"
         id="circle15967" /><circle
         style="fill:black;stroke:none"
         cx="0.5"
         cy="-0.366025403784"
         r="0.5"
         id="circle15969" /></pattern><linearGradient
       id="linearGradient14888"><stop
         style="stop-color:#62bc67;stop-opacity:1;"
         offset="0"
         id="stop14886" /></linearGradient><linearGradient
       id="linearGradient14880"><stop
         style="stop-color:#40a2de;stop-opacity:1;"
         offset="0"
         id="stop14878" /></linearGradient></defs><g
     id="layer1"><path
       id="path14618"
       clip-path="url(#clipPath14633)"
       style="fill:url(#pattern17070);fill-opacity:1;fill-rule:nonzero;stroke:#000000;stroke-width:2.97797;stroke-dasharray:none;stroke-opacity:1"
       d="M 255.48185,5.3611388 A 32.483815,32.323115 0 0 0 232.53724,14.806818 L 81.739035,164.89098 138.86359,221.72494 a 38.646145,38.45496 0 0 1 50.62746,20.84127 h 138.31001 a 38.706453,38.51497 0 0 1 8.43254,-12.57031 38.596802,38.405861 0 0 1 54.59476,0 38.596802,38.405861 0 0 1 8.27194,41.97019 l 53.80776,52.64653 45.48763,-45.26258 a 32.483815,32.323115 0 0 0 0,-45.66219 L 278.42643,14.806818 A 32.483815,32.323115 0 0 0 255.48185,5.3611388 Z M 59.308427,187.22661 13.628087,232.65699 a 32.445437,32.284927 0 0 0 0,45.67814 L 233.56521,497.20021 a 32.483815,32.323115 0 0 0 45.89719,0 L 433.93882,343.48802 380.54868,291.25705 A 38.596802,38.405861 0 0 1 328.93339,274.1717 H 191.88428 l 52.07305,51.82341 a 38.618733,38.427684 0 0 1 41.99412,8.3349 38.651628,38.460416 0 0 1 0,54.36465 38.596802,38.405861 0 0 1 -54.58675,0 38.531012,38.340397 0 0 1 -9.17142,-39.70068 l -55.83154,-55.57931 a 38.563908,38.37313 0 0 1 -39.89806,-9.10206 38.541977,38.351307 0 0 1 -9.2276,-39.44493 z" /></g></svg>
