<?xml version="1.0" encoding="UTF-8" standalone="no"?>
<svg
   width="512"
   height="512"
   viewBox="0 0 512 512"
   version="1.1"
   id="svg5"
   xml:space="preserve"
   sodipodi:docname="ビットマップ.svg"
   xmlns:inkscape="http://www.inkscape.org/namespaces/inkscape"
   xmlns:sodipodi="http://sodipodi.sourceforge.net/DTD/sodipodi-0.dtd"
   xmlns:xlink="http://www.w3.org/1999/xlink"
   xmlns="http://www.w3.org/2000/svg"
   xmlns:svg="http://www.w3.org/2000/svg"><sodipodi:namedview
     id="namedview22"
     pagecolor="#505050"
     bordercolor="#eeeeee"
     borderopacity="1"
     inkscape:showpageshadow="0"
     inkscape:pageopacity="0"
     inkscape:pagecheckerboard="true"
     inkscape:deskcolor="#505050"
     showgrid="false"
     borderlayer="true"
     showborder="true" /><defs
     id="defs2"><pattern
       xlink:href="#Packedcircles"
       id="pattern17070"
       patternTransform="matrix(41.320392,0,0,41.320392,-2919.315,-1028.7169)" /><linearGradient
       id="linearGradient17064"><stop
         style="stop-color:#e6ff2f;stop-opacity:1;"
         offset="0"
         id="stop17060" /><stop
         style="stop-color:#ffec56;stop-opacity:0;"
         offset="0.74113119"
         id="stop17062" /></linearGradient><pattern
       patternUnits="userSpaceOnUse"
       width="1"
       height="1.73205080756"
       patternTransform="translate(0,0) scale(10,10)"
       id="Packedcircles"><circle
         style="fill:black;stroke:none"
         cx="0"
         cy="0.5"
         r="0.5"
         id="circle15963" /><circle
         style="fill:black;stroke:none"
         cx="1"
         cy="0.5"
         r="0.5"
         id="circle15965" /><circle
         style="fill:black;stroke:none"
         cx="0.5"
         cy="1.36602540378"
         r="0.5"
         id="circle15967" /><circle
         style="fill:black;stroke:none"
         cx="0.5"
         cy="-0.366025403784"
         r="0.5"
         id="circle15969" /></pattern><radialGradient
       xlink:href="#linearGradient17064"
       id="radialGradient17068"
       cx="768.46198"
       cy="310.91748"
       fx="768.46198"
       fy="310.91748"
       r="61.754833"
       gradientTransform="matrix(4.1320392,0,0,4.1322052,-2919.315,-1028.7685)"
       gradientUnits="userSpaceOnUse" /></defs><g
     id="layer1"><path
       id="path14618"
       clip-path="url(#clipPath14633)"
       style="fill:url(#pattern17070);fill-opacity:1;fill-rule:nonzero;stroke:url(#radialGradient17068);stroke-width:10;stroke-dasharray:none;stroke-opacity:1"
       d="M 255.47922,2.8888137 A 32.643111,32.643111 0 0 0 232.42209,12.428004 L 80.8844,163.99799 138.28908,221.3946 a 38.83566,38.83566 0 0 1 50.87573,21.04759 h 138.98826 a 38.896264,38.896264 0 0 1 8.47389,-12.69475 38.786075,38.786075 0 0 1 54.86249,0 38.786075,38.786075 0 0 1 8.3125,42.38569 l 54.07163,53.16773 45.71069,-45.71068 a 32.643111,32.643111 0 0 0 0,-46.11424 L 278.53632,12.428004 A 32.643111,32.643111 0 0 0 255.47922,2.8888137 Z M 58.343795,186.55474 12.439445,232.43487 a 32.604545,32.604545 0 0 0 0,46.13035 L 233.4551,499.59705 a 32.643111,32.643111 0 0 0 46.12227,0 L 434.81132,344.36312 381.15936,291.61507 a 38.786075,38.786075 0 0 1 -51.8684,-17.25449 H 191.56978 l 52.3284,52.33645 a 38.808114,38.808114 0 0 1 42.20006,8.41742 38.84117,38.84117 0 0 1 0,54.90285 38.786075,38.786075 0 0 1 -54.85444,0 38.719963,38.719963 0 0 1 -9.21639,-40.09371 l -56.10533,-56.12954 a 38.75302,38.75302 0 0 1 -40.09372,-9.19217 38.730981,38.730981 0 0 1 -9.27285,-39.83543 z" /></g></svg>
